<?xml version="1.0" encoding="utf-8"?>
<!-- Generator: Adobe Illustrator 25.2.1, SVG Export Plug-In . SVG Version: 6.00 Build 0)  -->
<svg version="1.1" id="Layer_1" xmlns="http://www.w3.org/2000/svg" xmlns:xlink="http://www.w3.org/1999/xlink" x="0px" y="0px"
	 viewBox="0 0 500 500" enable-background="new 0 0 500 500" xml:space="preserve">
<g>
	<g>
		<path fill="#EA1F1F" d="M399.4,303.28c-5.13-12.68-12.09-23.68-20.88-32.96c-8.79-9.27-18.99-16.84-30.57-22.69
			c-11.6-5.86-23.86-10.01-36.8-12.46c27.83-9.03,47.9-22.82,60.24-41.37c12.32-18.56,18.49-40.77,18.49-66.65
			c0-17-2.55-32.13-7.67-45.4l-60.26,48.02c0.13,2.03,0.2,4.08,0.2,6.17c0,13.68-2.39,25.45-7.15,35.34
			c-4.76,9.89-11.47,18.13-20.14,24.71c-8.67,6.6-19.04,11.49-31.12,14.65c-12.08,3.18-25.57,4.77-40.46,4.77h-65.18V65.64h67.37
			c17.2,0,31.71,1.49,43.53,4.49l14.7-55.4c-16.11-2.69-34.06-4.02-53.84-4.02H92.91v478.59h125.23c28.57,0,54.5-3.17,77.81-9.53
			c23.31-6.34,43.21-15.61,59.69-27.83c16.47-12.2,29.17-27.16,38.08-44.85c8.91-17.7,13.37-38.03,13.37-60.98
			C407.09,330.26,404.52,315.97,399.4,303.28z M310.42,413.5c-18.31,13.91-46.14,20.87-83.5,20.87h-68.84V269.59h66.65
			c17.58,0,33.38,1.83,47.42,5.5c14.03,3.65,25.93,8.84,35.7,15.56c9.76,6.72,17.21,14.96,22.33,24.71
			c5.13,9.77,7.69,20.76,7.69,32.96C337.88,377.85,328.73,399.58,310.42,413.5z"/>
	</g>
	<polygon fill="#EA1F1F" points="315.12,21.59 351.8,63.95 275.21,114.54 	"/>
</g>
</svg>
